<?xml version="1.0" encoding="UTF-8"?>
<svg xmlns="http://www.w3.org/2000/svg" xmlns:xlink="http://www.w3.org/1999/xlink" width="20px" height="20px" viewBox="0 0 20 20" version="1.1">
<g id="surface1" transform="rotate(95, 10, 10)">
<path style="fill-rule:nonzero;fill:blue;fill-opacity:1;stroke-width:0.968;stroke-linecap:round;stroke-linejoin:round;stroke:blue;stroke-opacity:1;stroke-miterlimit:4;" d="M 601.906292 1563.699532 C 598.325947 1568.937502 591.84262 1571.356888 585.704022 1569.741948 C 579.571471 1568.127008 575.114184 1562.828553 574.575923 1556.507907 C 574.037661 1550.18726 577.539384 1544.211377 583.309061 1541.586343 C 589.084786 1538.955261 595.888651 1540.243584 600.297556 1544.804127 L 589.526282 1555.237729 Z M 601.906292 1563.699532 " transform="matrix(0.645887,0,0,0.645825,-369.92,-994.4075)"/>
<path style="fill-rule:nonzero;fill:blue;fill-opacity:1;stroke-width:0.968;stroke-linecap:round;stroke-linejoin:round;stroke:blue;stroke-opacity:1;stroke-miterlimit:4;" d="M 594.52183 1545.73559 C 594.52183 1546.56423 593.850516 1547.235609 593.021956 1547.235609 C 592.193397 1547.235609 591.522082 1546.56423 591.522082 1545.73559 C 591.522082 1544.90695 592.193397 1544.235571 593.021956 1544.235571 C 593.850516 1544.235571 594.52183 1544.90695 594.52183 1545.73559 Z M 594.52183 1545.73559 " transform="matrix(0.645887,0,0,0.645825,-369.92,-994.4075)"/>
</g>
</svg>
